<?xml version="1.0" encoding="UTF-8"?>
<svg version="1.1" xmlns="http://www.w3.org/2000/svg" width="1000" height="1000">
<path d="M0 0 C330 0 660 0 1000 0 C1000 330 1000 660 1000 1000 C670 1000 340 1000 0 1000 C0 670 0 340 0 0 Z " fill="#000000" transform="translate(0,0)"/>
<path d="M0 0 C0.94099548 0.00465271 1.88199097 0.00930542 2.85150146 0.01409912 C16.62761954 0.09384468 30.1113635 0.46938974 43.625 3.375 C44.64174805 3.58962891 45.65849609 3.80425781 46.70605469 4.02539062 C62.27565568 7.38453782 77.33823286 11.04645485 91.24609375 19.04296875 C93.7548967 20.51045616 93.7548967 20.51045616 97.125 21.8125 C134.15268054 38.34271453 159.0135293 76.11351316 173.625 112.375 C175.95124107 118.73116885 177.78809853 125.23913215 179.625 131.75 C180.01691528 133.13590332 180.01691528 133.13590332 180.41674805 134.54980469 C180.92765876 136.35879527 181.43770734 138.16802962 181.94677734 139.97753906 C182.50294342 141.9435401 183.07194252 143.90590656 183.64453125 145.8671875 C185.23501084 151.39860913 186.07933298 156.64549631 186.625 162.375 C186.955 163.035 187.285 163.695 187.625 164.375 C187.8525015 166.24556791 188.03462811 168.12185958 188.1875 170 C188.31318359 171.50433594 188.31318359 171.50433594 188.44140625 173.0390625 C188.50199219 173.80992187 188.56257813 174.58078125 188.625 175.375 C191.29882482 172.3192002 192.48831776 169.25553218 193.82568359 165.49804688 C195.11233654 162.08059603 196.77272786 158.87082266 198.4375 155.625 C199.15237062 154.21355527 199.86721417 152.80209684 200.58203125 151.390625 C200.93088379 150.70548828 201.27973633 150.02035156 201.63916016 149.31445312 C202.98103877 146.67456118 204.30353957 144.02516175 205.625 141.375 C207.28138458 138.05317955 208.94814007 134.73722407 210.6328125 131.4296875 C210.9834375 130.73746094 211.3340625 130.04523438 211.6953125 129.33203125 C212.37160785 127.99697414 213.05102006 126.66348869 213.734375 125.33203125 C215.93979904 120.96600886 217.80779286 116.5247951 219.59375 111.97216797 C221.32601779 107.60951058 223.20123151 103.30881662 225.0625 99 C227.87840357 92.45871202 230.66446285 85.9083877 233.37890625 79.32421875 C234.3426254 77.04331606 235.32958744 74.77979373 236.33984375 72.51953125 C239.40026724 65.66473655 242.20766207 58.9037403 244.4765625 51.73828125 C246.26822116 46.49128089 248.39409746 41.38320901 250.47875977 36.24707031 C253.25699003 29.37232497 255.85647266 22.44344103 258.36645508 15.46655273 C258.76900513 14.35389038 258.76900513 14.35389038 259.1796875 13.21875 C259.41155762 12.57099609 259.64342773 11.92324219 259.88232422 11.25585938 C260.67671623 9.24402634 261.65768094 7.30963812 262.625 5.375 C303.875 5.375 345.125 5.375 387.625 5.375 C386.54957945 9.67668219 385.00660599 13.54067738 383.3125 17.625 C383.01666016 18.35074219 382.72082031 19.07648438 382.41601562 19.82421875 C380.62011377 24.17627464 378.67125164 28.4043748 376.5168457 32.59082031 C375.65237734 34.32023033 374.88661671 36.09789434 374.125 37.875 C372.76130882 41.05694608 371.27658151 44.11527574 369.6875 47.1875 C368.81206027 48.9898759 368.00900861 50.82722552 367.2265625 52.671875 C365.6422699 56.40358799 363.84079988 60.01444866 362 63.625 C358.8829538 69.7815685 355.91537498 75.99572231 353 82.25 C350.31335465 87.99024438 347.50321657 93.47739349 344.125 98.84765625 C342.26423602 101.98284973 340.66455571 105.22823626 339.0625 108.5 C331.41078398 124.05653743 323.01847217 139.2435147 314.13671875 154.12890625 C311.82655153 158.00907226 309.59438204 161.93059615 307.36987305 165.86035156 C292.54874529 192.03151492 276.45845096 217.45601085 259.625 242.375 C258.90618652 243.44089355 258.18737305 244.50678711 257.44677734 245.60498047 C242.2721462 268.09979189 226.80039897 290.26048462 210.19604492 311.73022461 C207.52611207 315.18590347 204.91063812 318.67765159 202.3125 322.1875 C197.12135366 329.13352943 191.63312361 335.83114233 186.13378906 342.53417969 C184.81176807 344.14713087 183.49526924 345.76460493 182.1796875 347.3828125 C177.33584356 353.3377891 172.40647383 359.21534303 167.43359375 365.0625 C165.60056184 367.21885925 163.78065944 369.38511981 161.97265625 371.5625 C156.40710031 378.24424203 150.63913371 384.68495335 144.65893555 390.99951172 C141.84337829 393.97557093 139.08737367 396.97942778 136.41870117 400.08837891 C132.63555713 404.42238981 128.63896977 408.50554675 124.56640625 412.56640625 C123.8184227 413.31534653 123.07043915 414.0642868 122.29978943 414.83592224 C120.72867536 416.40771225 119.15631608 417.97825849 117.58276367 419.54760742 C115.19400154 421.93101304 112.81062554 424.31971068 110.42773438 426.70898438 C108.8909455 428.24511237 107.3538464 429.78093009 105.81640625 431.31640625 C105.11407364 432.02076309 104.41174103 432.72511993 103.68812561 433.45082092 C99.69675662 437.4236203 95.60706298 441.22421682 91.33917236 444.89894104 C89.12398594 446.80641886 86.96996114 448.77768001 84.8125 450.75 C80.55025284 454.59184342 76.18256431 458.26618753 71.71875 461.87109375 C69.45518164 463.70309794 67.20742755 465.54826857 64.96875 467.41015625 C55.51569004 475.23871134 45.75729682 482.45223717 35.625 489.375 C35.00302734 489.80377441 34.38105469 490.23254883 33.74023438 490.67431641 C18.72778122 501.00646394 3.16420597 510.679283 -13.375 518.375 C-14.170271 518.74713623 -14.96554199 519.11927246 -15.78491211 519.50268555 C-38.10861565 529.82245534 -62.10880574 539.1668418 -86.625 542.4375 C-91.10442875 543.01322305 -91.10442875 543.01322305 -95.52832031 543.89135742 C-99.41298566 544.55135074 -103.2221952 544.55744215 -107.15625 544.578125 C-108.0061853 544.58382507 -108.85612061 544.58952515 -109.73181152 544.59539795 C-111.53050502 544.60482575 -113.32921562 544.61137309 -115.12792969 544.61523438 C-117.83821136 544.62486922 -120.54771082 544.65588379 -123.2578125 544.6875 C-132.06735844 544.74055307 -140.13376243 544.49186657 -148.66601562 542.11401367 C-151.55777992 541.32513745 -154.40908054 540.85802939 -157.375 540.4375 C-193.67761908 534.60997431 -225.84805002 510.00031956 -247.03125 480.78515625 C-256.38856674 467.38755361 -264.65158146 452.68463899 -270.375 437.375 C-270.85324219 436.18261719 -271.33148438 434.99023438 -271.82421875 433.76171875 C-275.88981617 423.51079841 -278.85051721 413.10241824 -281.375 402.375 C-281.64159424 401.26390869 -281.64159424 401.26390869 -281.91357422 400.13037109 C-291.713433 358.43726298 -292.56458068 313.50657089 -284.76171875 271.45996094 C-284.37680453 269.38472897 -284.0145606 267.30653582 -283.65625 265.2265625 C-279.41106959 241.04269082 -272.34180925 217.21243049 -263.375 194.375 C-262.95605469 193.29347656 -262.53710938 192.21195313 -262.10546875 191.09765625 C-258.69950232 182.61121815 -254.59384009 174.47872568 -250.375 166.375 C-249.98070801 165.61155273 -249.58641602 164.84810547 -249.18017578 164.06152344 C-241.92558727 150.11281128 -233.49268825 137.17329621 -224.375 124.375 C-223.92350586 123.74062012 -223.47201172 123.10624023 -223.00683594 122.45263672 C-208.70954326 102.52818052 -191.43985098 82.80816091 -172.140625 67.60546875 C-169.8865011 65.78752419 -167.7248579 63.92341894 -165.5625 62 C-161.57427883 58.49416457 -157.43114854 55.29158224 -153.125 52.1875 C-152.35776611 51.63433105 -151.59053223 51.08116211 -150.80004883 50.51123047 C-136.10411088 40.08166394 -120.06687579 30.24812532 -103.375 23.375 C-102.16441983 22.75821868 -100.95765275 22.13392045 -99.75390625 21.50390625 C-95.33031006 19.28023442 -90.8045096 17.60115465 -86.125 16 C-85.26310059 15.70254883 -84.40120117 15.40509766 -83.51318359 15.09863281 C-56.07428598 5.73507791 -29.08110061 -0.25785816 0 0 Z " fill="#FCFCFC" transform="translate(442.375,193.625)"/>
<path d="M0 0 C1.04583252 0.00676758 2.09166504 0.01353516 3.16918945 0.02050781 C26.48734589 0.32895378 47.44178949 5.56626455 65.3125 21.25 C66.35664062 22.09691406 66.35664062 22.09691406 67.421875 22.9609375 C87.39837925 39.45316775 98.12998515 66.70463947 105.55126953 90.79541016 C106.24830217 93.04299392 106.97610643 95.27757883 107.71484375 97.51171875 C112.1590639 111.30218843 115.86270914 126.70002491 115.3125 141.25 C115.9725 141.25 116.6325 141.25 117.3125 141.25 C120.60904758 164.47567614 122.70707547 187.85213467 124.3125 211.25 C124.37536194 212.13983582 124.43822388 213.02967163 124.50299072 213.94647217 C126.89861223 248.76746335 126.89861223 248.76746335 114.13037109 263.97705078 C110.73176851 268.2264451 107.9654304 272.90525507 105.0625 277.5 C93.89845994 294.66116842 82.23942161 311.44772044 69.62255859 327.57421875 C68.49792206 329.01281456 67.38277513 330.4588201 66.26953125 331.90625 C47.1419583 356.76771781 25.78940759 382.58664945 1.05078125 402.0625 C-1.37284885 403.99863817 -3.69360919 406.01659741 -6.01245117 408.07568359 C-15.19322336 416.14157543 -25.39016764 422.70930498 -35.6875 429.25 C-36.47302246 429.75015625 -37.25854492 430.2503125 -38.06787109 430.765625 C-47.33968575 436.6084132 -56.19936698 440.95218498 -66.6875 444.25 C-70.13287343 445.49295117 -73.56705492 446.75833616 -76.921875 448.23046875 C-96.19635476 455.33589137 -119.28366814 453.97779394 -137.81640625 445.68359375 C-161.39694804 433.90936404 -173.60616947 412.0616777 -182.6875 388.25 C-184.31514689 383.36705932 -185.24148051 378.46589036 -186.1171875 373.40625 C-186.97555426 368.65583669 -187.99605497 363.93946273 -189.00390625 359.21875 C-190.58331163 350.84377633 -190.84867726 342.30968079 -190.890625 333.80859375 C-190.89754868 332.8507196 -190.90447235 331.89284546 -190.91160583 330.90594482 C-190.92878158 327.83308764 -190.93519263 324.76040293 -190.9375 321.6875 C-190.93883942 320.63809235 -190.94017883 319.58868469 -190.94155884 318.50747681 C-190.93713802 302.5441906 -190.2977136 287.02748973 -187.6875 271.25 C-187.42181697 269.56381123 -187.15619027 267.87761358 -186.890625 266.19140625 C-186.40931273 263.20080796 -185.90199256 260.21654131 -185.37109375 257.234375 C-184.69803926 253.41947629 -184.1862666 249.59173945 -183.6875 245.75 C-183.01067534 240.84866144 -181.93229391 236.34875793 -180.40234375 231.65234375 C-179.65767555 229.14977029 -179.18222433 226.69922101 -178.75 224.125 C-175.03359897 202.68879886 -167.73523043 181.78329156 -160.6875 161.25 C-160.0275 161.25 -159.3675 161.25 -158.6875 161.25 C-158.54054688 160.34121094 -158.54054688 160.34121094 -158.390625 159.4140625 C-158.24109375 158.57617188 -158.0915625 157.73828125 -157.9375 156.875 C-157.79828125 156.06289063 -157.6590625 155.25078125 -157.515625 154.4140625 C-150.64370347 128.15813589 -135.03753822 101.35863714 -119.6875 79.25 C-119.25308594 78.62029297 -118.81867188 77.99058594 -118.37109375 77.34179688 C-109.9636241 65.20743397 -100.80078154 53.98868809 -90.6875 43.25 C-90.07003906 42.59 -89.45257813 41.93 -88.81640625 41.25 C-75.57740684 27.53477759 -59.80979483 17.30864528 -42.6875 9.25 C-41.68074219 8.7240625 -40.67398438 8.198125 -39.63671875 7.65625 C-36.46622937 6.14449348 -33.37969329 5.13936345 -30 4.1875 C-28.88238281 3.86652344 -27.76476562 3.54554688 -26.61328125 3.21484375 C-17.71902221 0.93281824 -9.1799265 -0.08668062 0 0 Z " fill="#010101" transform="translate(444.6875,222.75)"/>
<path d="M0 0 C0.66 0 1.32 0 2 0 C2.08564209 1.13542236 2.17128418 2.27084473 2.25952148 3.44067383 C2.57810295 7.65093383 2.90169493 11.86079628 3.22680664 16.07055664 C3.36684811 17.89304306 3.50552832 19.71563462 3.64282227 21.53833008 C3.84033631 24.15735202 4.04273364 26.77595757 4.24609375 29.39453125 C4.3065538 30.21025101 4.36701385 31.02597076 4.42930603 31.8664093 C4.68329969 35.08675377 4.97416569 37.92249706 6 41 C6.13350672 43.35268513 6.23129068 45.70742963 6.3125 48.0625 C7.26755673 67.65622019 11.28848601 87.00449704 16 106 C16.16467773 106.68030273 16.32935547 107.36060547 16.49902344 108.06152344 C17.55597612 112.40776648 18.74208896 116.70854811 20 121 C20.21817383 121.76570312 20.43634766 122.53140625 20.66113281 123.3203125 C27.39976363 146.59092935 38.44028758 171.12354525 60 184 C60.61488281 184.39574219 61.22976563 184.79148437 61.86328125 185.19921875 C76.56502815 194.29064384 95.66323499 193.45520903 112 190 C129.73310807 185.18659928 145.14255062 175.35748623 158.9375 163.4921875 C162 161 162 161 164 161 C164.33 160.01 164.66 159.02 165 158 C166.65385233 156.65080468 168.321702 155.31866272 170 154 C170.474375 153.2575 170.94875 152.515 171.4375 151.75 C173 150 173 150 176.1875 149.75 C177.115625 149.8325 178.04375 149.915 179 150 C178.59587891 150.9590625 178.59587891 150.9590625 178.18359375 151.9375 C176.34691887 156.68982048 174.83973783 161.55100511 173.29882812 166.40625 C171.92318627 170.62816875 170.44888452 174.25788433 168 178 C167.30888738 179.579686 166.62083497 181.16092796 165.9609375 182.75390625 C163.76365442 187.88983214 161.35380695 192.93436369 159 198 C158.34 198 157.68 198 157 198 C156.87818359 199.03253906 156.87818359 199.03253906 156.75390625 200.0859375 C155.80934179 203.7369483 154.0085688 206.52908563 151.9375 209.625 C151.53047852 210.2425415 151.12345703 210.86008301 150.70410156 211.49633789 C149.48092311 213.33895867 148.24360064 215.17111545 147 217 C146.36707031 217.93457031 145.73414063 218.86914062 145.08203125 219.83203125 C137.41438929 230.73675873 128.59278678 241.81011381 118 250 C117.12214844 250.70253906 116.24429688 251.40507813 115.33984375 252.12890625 C103.66561337 261.21911726 92.09680373 267.45654488 78 272 C77.154375 272.30808594 76.30875 272.61617187 75.4375 272.93359375 C57.7351265 279.3568508 33.0649765 278.85351041 16 271 C14.23039433 270.35081038 12.45965336 269.70470236 10.6875 269.0625 C-21.60144113 255.66659219 -40.30002655 224.01010259 -53.39697266 193.38916016 C-57.98292414 182.18643395 -61.16332133 170.57192399 -64.23486328 158.87866211 C-64.73343041 157.00291068 -65.24673615 155.13099559 -65.77685547 153.26391602 C-67.76318333 146.25986318 -69.20847583 139.22505844 -70.5 132.0625 C-70.71358154 130.89114502 -70.92716309 129.71979004 -71.1472168 128.51293945 C-72.45587815 121.25122953 -73.69621759 113.98132793 -74.8125 106.6875 C-74.93625 105.88900635 -75.06 105.0905127 -75.1875 104.26782227 C-75.4946147 102.18102306 -75.75960133 100.0953993 -76 98 C-76.12375 96.94683594 -76.2475 95.89367187 -76.375 94.80859375 C-75.83972153 90.79958101 -74.0006109 89.23138953 -71.1875 86.375 C-70.17288543 85.3218955 -69.15857091 84.26850185 -68.14453125 83.21484375 C-67.36070068 82.41602783 -67.36070068 82.41602783 -66.56103516 81.60107422 C-64.11537099 79.0926811 -61.74266232 76.5193333 -59.375 73.9375 C-58.91843018 73.44185547 -58.46186035 72.94621094 -57.99145508 72.43554688 C-54.21780003 68.3092705 -50.69154394 64.01127604 -47.1875 59.65625 C-44.98962902 56.98740666 -42.70672484 54.4272934 -40.375 51.875 C-37.04407387 48.21098126 -33.93183166 44.46333459 -30.9296875 40.52734375 C-28.56626072 37.43192446 -26.15927395 34.37228211 -23.75 31.3125 C-22.8033553 30.10809659 -21.85674112 28.90366918 -20.91015625 27.69921875 C-18.96149099 25.22118909 -17.01068464 22.744863 -15.05859375 20.26953125 C-6.82500044 10.59237563 -6.82500044 10.59237563 0 0 Z " fill="#FCFCFC" transform="translate(667,503)"/>
<path d="M0 0 C0.66 0 1.32 0 2 0 C2 2.64 2 5.28 2 8 C1.34 7.01 0.68 6.02 0 5 C-1.98 5.99 -1.98 5.99 -4 7 C-2.68 4.69 -1.36 2.38 0 0 Z " fill="#CFCFCF" transform="translate(667,503)"/>
</svg>
