<?xml version="1.0" encoding="UTF-8"?>
<svg version="1.1" xmlns="http://www.w3.org/2000/svg" width="1024" height="1024">
<path d="M0 0 C337.92 0 675.84 0 1024 0 C1024 337.92 1024 675.84 1024 1024 C686.08 1024 348.16 1024 0 1024 C0 686.08 0 348.16 0 0 Z " fill="#010101" transform="translate(0,0)"/>
<path d="M0 0 C1.44750934 0.40640151 2.89540167 0.81144246 4.34375 1.21484375 C33.7254612 9.64006365 60.18226166 24.85405606 83 45 C84.26650391 46.0828125 84.26650391 46.0828125 85.55859375 47.1875 C89.78752877 50.83878959 93.62431362 54.61690162 97.21777344 58.8972168 C98.87261754 60.84970615 100.57066464 62.75269614 102.28125 64.65625 C106.13381019 69.05685188 109.5366671 73.70202534 112.875 78.5 C113.48359863 79.37366211 114.09219727 80.24732422 114.71923828 81.14746094 C120.00946052 88.84105567 124.67513737 96.73280247 129 105 C129.34756348 105.64888184 129.69512695 106.29776367 130.05322266 106.96630859 C134.34961723 115.00300061 137.98083787 123.05176909 140.8347168 131.71459961 C142.19056746 135.82418555 143.74251948 139.77853188 145.45703125 143.75390625 C147.99887413 149.78705206 149.84647867 155.85968576 151.5 162.1875 C151.79479248 163.29955811 152.08958496 164.41161621 152.39331055 165.55737305 C156.52629218 181.48028762 159.82718634 197.68768253 162 214 C171.83344154 195.47428173 181.06733727 176.82667261 189.75292969 157.73339844 C191.37964619 154.16787026 193.02747627 150.61262092 194.6875 147.0625 C195.23148438 145.8971875 195.77546875 144.731875 196.3359375 143.53125 C197.49715412 141.06707201 198.6677917 138.60948339 199.8515625 136.15625 C205.25003592 124.91769634 210.04674655 113.46114264 214.79052734 101.93310547 C216.61411114 97.51071231 218.45916505 93.09749586 220.3125 88.6875 C220.6410498 87.90407227 220.96959961 87.12064453 221.30810547 86.31347656 C223.00238092 82.29336778 224.76169704 78.32047008 226.625 74.375 C228.8916863 69.46010595 230.66433256 64.40742892 232.42504883 59.29663086 C234.74147177 52.61937442 237.26054314 46.02790546 239.8125 39.4375 C243.64771476 29.53162159 247.42011887 19.60483061 251.13208008 9.65209961 C251.48036865 8.71889893 251.82865723 7.78569824 252.1875 6.82421875 C252.49042969 6.01041748 252.79335938 5.19661621 253.10546875 4.3581543 C254.04027365 1.893831 255.02113722 -0.55284304 256 -3 C308.8 -3 361.6 -3 416 -3 C415.24376805 0.78115973 414.54663289 3.36410269 413.03125 6.78125 C412.6295459 7.69511475 412.2278418 8.60897949 411.81396484 9.55053711 C411.38035645 10.52385986 410.94674805 11.49718262 410.5 12.5 C409.58524612 14.57391394 408.67119867 16.64813959 407.7578125 18.72265625 C407.29536133 19.7708252 406.83291016 20.81899414 406.35644531 21.89892578 C404.69965728 25.68663664 403.09206998 29.49385056 401.48706055 33.30371094 C398.28840959 40.87935232 394.95710681 48.33102277 391.21459961 55.65356445 C388.1793554 61.59291392 385.30539547 67.60331293 382.4375 73.625 C366.79610658 106.35648319 350.2507268 138.67422284 332.09863281 170.09130859 C330.83753361 172.28225828 329.58626922 174.4786691 328.3359375 176.67578125 C303.66493607 220.0158335 277.91278546 262.65961119 250 304 C249.31760254 305.01126953 248.63520508 306.02253906 247.93212891 307.06445312 C239.55253576 319.46829432 231.10025179 331.81201625 222.41503906 344.00390625 C220.95140164 346.06855421 219.50153196 348.14230436 218.0546875 350.21875 C211.98326027 358.91732301 205.70254825 367.41418073 199.22265625 375.8125 C196.09227081 379.86967524 193.00779376 383.95973585 189.9375 388.0625 C189.19862549 389.04790771 189.19862549 389.04790771 188.44482422 390.05322266 C185.97668728 393.347582 183.51863494 396.64893719 181.07421875 399.9609375 C174.18345106 409.26907706 166.96254749 418.2497754 159.54541016 427.14306641 C157.51489177 429.58289624 155.50598133 432.03997465 153.5 434.5 C152.80777344 435.345625 152.11554687 436.19125 151.40234375 437.0625 C150.07430732 438.68637543 148.74693138 440.31079427 147.42236328 441.9375 C140.88457478 449.96358056 134.31389627 457.88119139 127.27734375 465.4765625 C125.00096618 467.99892941 122.87081724 470.5960599 120.75 473.25 C116.41777003 478.6228902 111.75660488 483.63299122 107.02368164 488.64990234 C104.01346313 491.84085691 101.0415197 495.04198398 98.1875 498.375 C95.11198966 501.95405738 91.79213278 505.24643834 88.40625 508.53125 C86.44411518 510.54434936 84.6096822 512.58673725 82.77734375 514.71484375 C78.73814463 519.36778427 74.42891075 523.71819766 70.0625 528.0625 C68.92264648 529.2081543 68.92264648 529.2081543 67.75976562 530.37695312 C63.55151372 534.57801758 59.2496441 538.59483449 54.74389648 542.47436523 C52.5582106 544.38649614 50.52163698 546.4161588 48.5 548.5 C45.19013302 551.84933729 41.79253051 554.99925956 38.21875 558.0625 C36.0165191 559.98557487 33.86780766 561.96001578 31.72509766 563.94897461 C26.64870468 568.65701071 21.47579577 573.17044926 16.078125 577.51171875 C13.77859241 579.37060486 11.50086452 581.24614776 9.234375 583.14453125 C-1.55580788 592.16317235 -12.65923592 600.68638694 -24 609 C-25.0504248 609.77657959 -25.0504248 609.77657959 -26.12207031 610.56884766 C-57.77468567 633.89708651 -94.54668995 655.50288174 -132.02734375 667.96484375 C-135.08187999 668.98220031 -135.08187999 668.98220031 -138.2578125 670.44921875 C-142.6890839 672.37831062 -147.27757032 673.62189912 -151.9375 674.875 C-152.89406494 675.1325708 -153.85062988 675.3901416 -154.83618164 675.65551758 C-165.80613706 678.55050297 -176.84642853 680.93271076 -188 683 C-189.27327148 683.24991699 -189.27327148 683.24991699 -190.57226562 683.50488281 C-230.04876039 691.02940806 -272.61708672 687.19123047 -310 673 C-311.13695312 672.59136719 -312.27390625 672.18273437 -313.4453125 671.76171875 C-333.8538373 663.94508321 -352.33938542 651.10290038 -368 636 C-368.61456055 635.41653809 -369.22912109 634.83307617 -369.86230469 634.23193359 C-383.54094785 621.19619312 -395.3202642 607.27065704 -405 591 C-405.79790405 589.69254167 -406.59610465 588.38526429 -407.39453125 587.078125 C-414.80753155 574.83055929 -420.87715268 562.41068677 -425.8828125 548.98046875 C-426.88967331 546.2943331 -427.96205707 543.64874055 -429.0625 541 C-430.99836891 536.18753873 -432.52398693 531.28594078 -434.00390625 526.31640625 C-434.62985502 524.23236505 -435.28005531 522.15529876 -435.96484375 520.08984375 C-438.30472207 512.95744356 -440.02713472 505.76846582 -441.625 498.4375 C-441.83116943 497.49213379 -442.03733887 496.54676758 -442.24975586 495.57275391 C-451.33447685 452.90220638 -451.88640005 409.31176943 -448 366 C-447.86319824 364.42484619 -447.86319824 364.42484619 -447.72363281 362.81787109 C-444.87438596 331.53114113 -437.92740403 299.79530029 -428 270 C-427.72849121 269.17226074 -427.45698242 268.34452148 -427.17724609 267.49169922 C-413.8178945 226.95628397 -395.02184954 187.44225073 -369.52587891 153.06738281 C-367.86506038 150.81717301 -366.234466 148.54677734 -364.60546875 146.2734375 C-357.66911312 136.6478865 -350.42091208 127.45738586 -342.47900391 118.64208984 C-341.13649768 117.15154893 -339.80768162 115.64870584 -338.48046875 114.14453125 C-332.37087644 107.32295495 -325.94640033 100.81435567 -319.5 94.3125 C-318.63375 93.43319824 -317.7675 92.55389648 -316.875 91.64794922 C-311.63975031 86.40580067 -306.22754487 81.57747661 -300.42773438 76.96630859 C-298.1963113 75.15899952 -296.09056876 73.27933492 -294 71.3125 C-270.77480296 50.52120461 -242.21625196 33.56192859 -213.85791016 20.84521484 C-212.1462582 20.06653691 -210.45292378 19.24792314 -208.76171875 18.42578125 C-199.9339651 14.15211652 -190.79164818 11.00870477 -181.515625 7.87402344 C-178.92654669 6.97447954 -176.36849554 6.00805337 -173.8046875 5.0390625 C-167.07134746 2.58489849 -160.19493728 0.74826025 -153.25 -1 C-152.56612213 -1.17330841 -151.88224426 -1.34661682 -151.17764282 -1.525177 C-135.93031944 -5.34619775 -120.62958025 -7.4207906 -105 -9 C-104.07509766 -9.10094971 -103.15019531 -9.20189941 -102.19726562 -9.3059082 C-68.42866997 -12.76911499 -32.49325018 -9.69451505 0 0 Z " fill="#FDFDFD" transform="translate(518,130)"/>
<path d="M0 0 C1.4540625 0.98226562 1.4540625 0.98226562 2.9375 1.984375 C28.8725107 20.49008576 47.98671448 50.92653305 57.11328125 81.2890625 C57.98203446 84.10606688 57.98203446 84.10606688 59.39453125 87.109375 C61.58109237 92.11478858 62.93000514 97.36816668 64.375 102.625 C64.67954102 103.72368408 64.98408203 104.82236816 65.29785156 105.9543457 C68.12042324 116.24367311 70.6732676 126.58787252 73 137 C73.24298828 138.06468506 73.48597656 139.12937012 73.73632812 140.22631836 C75.58046908 148.50935374 76.91556202 156.77391552 78 165.1875 C78.31039908 167.55626583 78.62294096 169.92475175 78.9375 172.29296875 C79.10145264 173.52877686 79.26540527 174.76458496 79.43432617 176.0378418 C79.81459415 178.79069912 80.24838318 181.52946781 80.71606445 184.26879883 C84.38212352 205.83562497 85.53800317 227.6894665 86.79589844 249.50701904 C86.99256634 252.87278083 87.20487457 256.23729616 87.41796875 259.60205078 C89.90862687 301.07191549 89.90862687 301.07191549 74.74560547 319.47119141 C71.25755398 323.82879462 68.24705793 328.50228255 65.19140625 333.16796875 C64.58837677 334.08802704 63.98534729 335.00808533 63.36404419 335.95602417 C62.12771541 337.84473557 60.89215581 339.73395068 59.65734863 341.62365723 C48.55164506 358.56255573 37.07515388 375.25265183 25.0625 391.5625 C24.48677246 392.34423584 23.91104492 393.12597168 23.31787109 393.93139648 C17.8911442 401.24275296 12.17955057 408.30164433 6.38085938 415.31933594 C4.51780455 417.5868871 2.69562664 419.88581347 0.875 422.1875 C-6.66412464 431.6114058 -14.49847608 440.67901305 -22.78955078 449.44799805 C-25.99496882 452.83821681 -29.13850384 456.27043359 -32.23828125 459.7578125 C-36.87621481 464.9271555 -41.71771309 469.87011057 -46.63891602 474.76928711 C-48.06839717 476.19337492 -49.49240511 477.62278044 -50.91601562 479.05273438 C-56.1161573 484.24563856 -61.40496623 489.23712216 -67 494 C-68.09505645 494.96075255 -69.18885642 495.92293955 -70.28125 496.88671875 C-92.17002953 516.01283679 -116.15339137 531.73875091 -142 545 C-142.67530762 545.350625 -143.35061523 545.70125 -144.04638672 546.0625 C-152.98647787 550.66011961 -162.29624195 553.5006396 -172 556 C-173.8396936 556.50515137 -173.8396936 556.50515137 -175.71655273 557.02050781 C-185.34712322 559.56713382 -194.40337305 560.63621292 -204.35717773 560.52148438 C-206.56670275 560.49995906 -208.77299126 560.52148205 -210.98242188 560.546875 C-224.00719068 560.57401595 -236.79814327 558.48820665 -248.375 552.1875 C-249.03580566 551.84130615 -249.69661133 551.4951123 -250.37744141 551.13842773 C-278.81005504 535.93521524 -295.79977031 508.96718911 -305.00756836 478.76513672 C-305.67974768 476.51236597 -306.34086122 474.25661252 -307 472 C-307.29648437 471.02675781 -307.59296875 470.05351563 -307.8984375 469.05078125 C-308.67796908 466.38109513 -309.35292208 463.70499785 -310 461 C-310.15710449 460.37270996 -310.31420898 459.74541992 -310.47607422 459.09912109 C-327.87397183 388.21698239 -312.38917725 303.57113218 -292 235 C-291.7230127 234.0605957 -291.44602539 233.12119141 -291.16064453 232.15332031 C-284.80955206 210.69491641 -277.93728006 189.43816051 -269.1953125 168.8203125 C-268.42721823 167.00801164 -267.67096478 165.1906214 -266.9296875 163.3671875 C-259.42719289 144.95197345 -250.80861372 127.29123251 -241 110 C-240.57219238 109.23848633 -240.14438477 108.47697266 -239.70361328 107.69238281 C-233.11891001 96.00655877 -225.70921846 84.96950468 -218 74 C-217.27941406 72.95972656 -216.55882812 71.91945313 -215.81640625 70.84765625 C-210.75943851 63.68799922 -205.08634503 57.10259949 -199.31884766 50.51416016 C-198.25654477 49.29453733 -197.20972242 48.06144006 -196.16796875 46.82421875 C-186.81826589 35.77026625 -176.34729473 25.89181518 -164.72363281 17.27929688 C-163.04030287 16.02991318 -161.37560378 14.75846585 -159.7109375 13.484375 C-115.55976222 -19.7298528 -48.25538492 -32.62722049 0 0 Z " fill="#010101" transform="translate(513,175)"/>
<path d="M0 0 C0.33 0 0.66 0 1 0 C1.01458252 0.62527588 1.02916504 1.25055176 1.04418945 1.89477539 C1.51623296 20.36118393 2.97229381 38.64398108 5 57 C5.07389954 57.67156128 5.14779907 58.34312256 5.22393799 59.03503418 C6.92480105 74.41959115 8.86166717 89.76934237 11.18804932 105.07254028 C11.48735512 107.04180383 11.78067533 109.0119743 12.07373047 110.98217773 C13.28480534 118.70189176 14.98628469 126.11711435 17.07226562 133.63427734 C18.17874775 137.648478 19.10272502 141.68548207 20 145.75 C21.32049897 151.5399307 22.92349833 157.06234317 25.07421875 162.609375 C25.92480052 164.80581401 26.66417071 167.00527592 27.375 169.25 C36.98689346 198.03482379 51.69601628 224.83789954 79 240 C102.28405617 251.35063048 127.97270283 249.68859018 152.01953125 241.51171875 C158.98296307 238.97409506 165.49923756 235.53088877 172 232 C173.02609375 231.45601562 174.0521875 230.91203125 175.109375 230.3515625 C190.71794165 221.70357287 204.90234971 209.94380752 216.875 196.75 C219.48943067 194.04383492 219.86515735 194.01498252 223.9375 193.5625 C224.948125 193.706875 225.95875 193.85125 227 194 C225.56018041 198.4771533 223.90066007 202.83535887 222.125 207.1875 C220.33784139 211.5959322 218.61967913 216.00372954 217.0625 220.5 C198.85735952 270.97116182 163.16864714 320.44698332 114.11132812 344.00878906 C85.97313932 357.21890083 50.09427492 359.93239575 20.53759766 349.94140625 C14.0253736 347.52548014 8.00112145 344.47840178 2 341 C1.08476563 340.49597656 0.16953125 339.99195313 -0.7734375 339.47265625 C-44.82275321 314.39094809 -68.33229432 263.45360876 -81.50390625 216.5546875 C-82.00672294 214.70423926 -82.50498058 212.85254935 -83 211 C-83.31179199 209.83758789 -83.62358398 208.67517578 -83.94482422 207.47753906 C-89.95422654 184.82649366 -94.50519914 162.0878317 -97.8125 138.875 C-97.93665283 138.01696777 -98.06080566 137.15893555 -98.1887207 136.27490234 C-98.51314537 133.8523719 -98.76797044 131.43297454 -99 129 C-99.10852295 128.16162598 -99.2170459 127.32325195 -99.32885742 126.45947266 C-99.62581559 122.71328628 -99.65652886 120.0816968 -97.67260742 116.81298828 C-95.78486512 114.60756849 -93.79766601 112.61832796 -91.6875 110.625 C-90.20646245 109.14249511 -88.72599541 107.65942004 -87.24609375 106.17578125 C-86.5176123 105.46244629 -85.78913086 104.74911133 -85.03857422 104.01416016 C-82.34922567 101.35701938 -79.79711786 98.60647509 -77.25 95.8125 C-76.38890625 94.86890625 -75.5278125 93.9253125 -74.640625 92.953125 C-70.17301868 87.95680787 -65.82028434 82.86475808 -61.48632812 77.75244141 C-60.02007079 76.02366428 -58.54953048 74.29861488 -57.078125 72.57421875 C-51.59914831 66.14188698 -46.24821213 59.62228949 -41 53 C-40.07622533 51.84578997 -39.15169243 50.69218654 -38.2265625 49.5390625 C-19.38822853 26.10478533 -19.38822853 26.10478533 -1.49609375 1.94921875 C-1.00238281 1.30597656 -0.50867188 0.66273438 0 0 Z " fill="#FDFDFD" transform="translate(728,514)"/>
</svg>
